<svg width="20" height="17" viewBox="0 0 20 17" fill="none" xmlns="http://www.w3.org/2000/svg">
<path d="M1.90591 16.1399C1.39123 16.1399 0.944914 15.9509 0.566948 15.573C0.188983 15.195 0 14.7487 0 14.234V1.93004C0 1.39928 0.188983 0.944914 0.566948 0.566948C0.944914 0.188983 1.39123 0 1.90591 0H18.07C18.6007 0 19.0551 0.188983 19.4331 0.566948C19.811 0.944914 20 1.39928 20 1.93004V14.234C20 14.7487 19.811 15.195 19.4331 15.573C19.0551 15.9509 18.6007 16.1399 18.07 16.1399H1.90591ZM9.98794 8.95054L1.90591 3.57057V14.234H18.07V3.57057L9.98794 8.95054ZM9.98794 7.18938L17.9735 1.93004H2.02654L9.98794 7.18938ZM1.90591 3.57057V1.93004V14.234V3.57057Z" fill="url(#paint0_linear_406_962)"/>
<defs>
<linearGradient id="paint0_linear_406_962" x1="10" y1="0" x2="10" y2="16.1399" gradientUnits="userSpaceOnUse">
<stop stop-color="#231955"/>
<stop offset="1" stop-color="#1F4690"/>
</linearGradient>
</defs>
</svg>
