<svg width="20" height="20" viewBox="0 0 20 20" fill="none" xmlns="http://www.w3.org/2000/svg">
<path d="M18.4492 20C16.221 20 14.0107 19.4563 11.8182 18.369C9.62567 17.2816 7.65152 15.8645 5.89572 14.1176C4.13993 12.3708 2.71836 10.3966 1.63102 8.19519C0.543672 5.99376 0 3.78788 0 1.57754C0 1.13191 0.151515 0.757576 0.454545 0.454545C0.757576 0.151515 1.12299 0 1.5508 0H5.29412C5.72192 0 6.07397 0.120321 6.35027 0.360963C6.62656 0.601604 6.80927 0.935829 6.8984 1.36364L7.62032 4.49198C7.69162 4.86631 7.68717 5.20053 7.60695 5.49465C7.52674 5.78877 7.37968 6.03387 7.16578 6.22995L4.41176 8.82353C5.35651 10.3565 6.39037 11.68 7.51337 12.7941C8.63636 13.9082 9.90196 14.8485 11.3102 15.615L13.9305 12.9412C14.18 12.6738 14.4608 12.4911 14.7727 12.393C15.0847 12.295 15.4189 12.2906 15.7754 12.3797L18.6364 13.0481C19.0642 13.1551 19.3984 13.3556 19.639 13.6497C19.8797 13.9438 20 14.3048 20 14.7326V18.4225C20 18.8681 19.8485 19.2424 19.5455 19.5455C19.2424 19.8485 18.877 20 18.4492 20ZM3.36898 6.95187L5.50802 4.86631L4.91979 2.13904H2.13904C2.12121 2.78075 2.21034 3.4893 2.40642 4.26471C2.6025 5.04011 2.92335 5.93583 3.36898 6.95187ZM13.262 16.6845C13.9394 17.0053 14.6836 17.2683 15.4947 17.4733C16.3057 17.6783 17.0945 17.8075 17.861 17.861V15.0535L15.3476 14.492L13.262 16.6845Z" fill="url(#paint0_linear_406_926)"/>
<defs>
<linearGradient id="paint0_linear_406_926" x1="10" y1="0" x2="10" y2="20" gradientUnits="userSpaceOnUse">
<stop stop-color="#231955"/>
<stop offset="1" stop-color="#1F4690"/>
</linearGradient>
</defs>
</svg>
