<svg width="22" height="18" viewBox="0 0 22 18" fill="none" xmlns="http://www.w3.org/2000/svg">
<path d="M16.6955 0.5C14.8351 0.5 12.8317 0.9 11.4484 2C10.065 0.9 8.06157 0.5 6.20123 0.5C4.81789 0.5 3.3487 0.72 2.11801 1.29C1.42157 1.62 0.954102 2.33 0.954102 3.14V14.42C0.954102 15.72 2.11801 16.68 3.32008 16.36C4.25502 16.11 5.2472 16 6.20123 16C7.6895 16 9.27318 16.26 10.5516 16.92C11.124 17.22 11.7727 17.22 12.3356 16.92C13.614 16.25 15.1977 16 16.6859 16C17.64 16 18.6321 16.11 19.5671 16.36C20.7692 16.69 21.9331 15.73 21.9331 14.42V3.14C21.9331 2.33 21.4656 1.62 20.7692 1.29C19.548 0.72 18.0788 0.5 16.6955 0.5ZM20.0346 13.23C20.0346 13.86 19.4812 14.32 18.8897 14.21C18.1742 14.07 17.4301 14.01 16.6955 14.01C15.0736 14.01 12.7363 14.66 11.4484 15.51V4C12.7363 3.15 15.0736 2.5 16.6955 2.5C17.5732 2.5 18.4413 2.59 19.2713 2.78C19.7102 2.88 20.0346 3.29 20.0346 3.76V13.23Z" fill="url(#paint0_linear_405_491)"/>
<defs>
<linearGradient id="paint0_linear_405_491" x1="11.4436" y1="0.5" x2="11.4436" y2="17.145" gradientUnits="userSpaceOnUse">
<stop stop-color="#FFE5B4"/>
<stop offset="1" stop-color="#E8AA42"/>
</linearGradient>
</defs>
</svg>
