<svg width="22" height="18" viewBox="0 0 22 18" fill="none" xmlns="http://www.w3.org/2000/svg">
<path d="M16.6954 0.5C14.835 0.5 12.8316 0.9 11.4482 2C10.0649 0.9 8.06145 0.5 6.20111 0.5C4.81777 0.5 3.34858 0.72 2.11789 1.29C1.42145 1.62 0.953979 2.33 0.953979 3.14V14.42C0.953979 15.72 2.11789 16.68 3.31996 16.36C4.2549 16.11 5.24708 16 6.20111 16C7.68938 16 9.27306 16.26 10.5515 16.92C11.1239 17.22 11.7726 17.22 12.3355 16.92C13.6139 16.25 15.1975 16 16.6858 16C17.6398 16 18.632 16.11 19.567 16.36C20.769 16.69 21.9329 15.73 21.9329 14.42V3.14C21.9329 2.33 21.4655 1.62 20.769 1.29C19.5479 0.72 18.0787 0.5 16.6954 0.5ZM20.0344 13.23C20.0344 13.86 19.4811 14.32 18.8896 14.21C18.1741 14.07 17.43 14.01 16.6954 14.01C15.0735 14.01 12.7362 14.66 11.4482 15.51V4C12.7362 3.15 15.0735 2.5 16.6954 2.5C17.5731 2.5 18.4412 2.59 19.2712 2.78C19.7101 2.88 20.0344 3.29 20.0344 3.76V13.23Z" fill="url(#paint0_linear_405_490)"/>
<path d="M13.3372 7.0101C13.032 7.0101 12.7553 6.8101 12.6599 6.4901C12.5359 6.1001 12.7457 5.6701 13.1178 5.5501C14.587 5.0501 16.4855 4.8901 18.2314 5.1001C18.6225 5.1501 18.9087 5.5201 18.861 5.9301C18.8133 6.3401 18.4603 6.6401 18.0692 6.5901C16.5237 6.4001 14.8351 6.5501 13.5567 6.9801C13.4803 6.9901 13.404 7.0101 13.3372 7.0101Z" fill="url(#paint1_linear_405_490)"/>
<path d="M13.3372 9.67001C13.032 9.67001 12.7553 9.47001 12.6599 9.15001C12.5359 8.76001 12.7457 8.33001 13.1178 8.21001C14.5775 7.71001 16.4855 7.55001 18.2314 7.76001C18.6225 7.81001 18.9087 8.18001 18.861 8.59001C18.8133 9.00001 18.4603 9.30001 18.0692 9.25001C16.5237 9.06001 14.8351 9.21001 13.5567 9.64001C13.4803 9.66001 13.404 9.67001 13.3372 9.67001Z" fill="url(#paint2_linear_405_490)"/>
<path d="M13.3372 12.3299C13.032 12.3299 12.7553 12.1299 12.6599 11.8099C12.5359 11.4199 12.7457 10.9899 13.1178 10.8699C14.5775 10.3699 16.4855 10.2099 18.2314 10.4199C18.6225 10.4699 18.9087 10.8399 18.861 11.2499C18.8133 11.6599 18.4603 11.9499 18.0692 11.9099C16.5237 11.7199 14.8351 11.8699 13.5567 12.2999C13.4803 12.3199 13.404 12.3299 13.3372 12.3299Z" fill="url(#paint3_linear_405_490)"/>
<defs>
<linearGradient id="paint0_linear_405_490" x1="11.4435" y1="0.5" x2="11.4435" y2="17.145" gradientUnits="userSpaceOnUse">
<stop stop-color="#FFE5B4"/>
<stop offset="1" stop-color="#E8AA42"/>
</linearGradient>
<linearGradient id="paint1_linear_405_490" x1="15.7452" y1="5.01001" x2="15.7452" y2="7.0101" gradientUnits="userSpaceOnUse">
<stop stop-color="#FFE5B4"/>
<stop offset="1" stop-color="#E8AA42"/>
</linearGradient>
<linearGradient id="paint2_linear_405_490" x1="15.7452" y1="7.66992" x2="15.7452" y2="9.67001" gradientUnits="userSpaceOnUse">
<stop stop-color="#FFE5B4"/>
<stop offset="1" stop-color="#E8AA42"/>
</linearGradient>
<linearGradient id="paint3_linear_405_490" x1="15.7452" y1="10.3298" x2="15.7452" y2="12.3299" gradientUnits="userSpaceOnUse">
<stop stop-color="#FFE5B4"/>
<stop offset="1" stop-color="#E8AA42"/>
</linearGradient>
</defs>
</svg>
