<svg width="286" height="35" viewBox="0 0 286 35" fill="none" xmlns="http://www.w3.org/2000/svg">
<path d="M25.7839 27H20.5999L20.0599 16.884C19.8919 13.86 19.8079 11.292 19.8079 9.18C19.8079 8.052 19.8199 7.236 19.8439 6.732L15.6319 24.336H10.6279L6.12794 6.696C6.22394 8.16 6.27194 9.804 6.27194 11.628C6.27194 13.572 6.22394 15.36 6.12794 16.992L5.58794 27H0.439941L2.38394 2.088H9.11594L13.2199 19.26L17.0719 2.088H23.8759L25.7839 27Z" fill="white"/>
<path d="M44.3304 21.708C44.3304 22.452 44.4384 23.004 44.6544 23.364C44.8704 23.7 45.2304 23.952 45.7344 24.12L44.6544 27.504C43.5264 27.408 42.6024 27.144 41.8824 26.712C41.1864 26.28 40.6464 25.608 40.2624 24.696C39.0144 26.616 37.1064 27.576 34.5384 27.576C32.6424 27.576 31.1304 27.036 30.0024 25.956C28.8984 24.852 28.3464 23.424 28.3464 21.672C28.3464 19.584 29.1024 17.988 30.6144 16.884C32.1264 15.78 34.2984 15.228 37.1304 15.228H39.3264V14.292C39.3264 13.116 39.0624 12.3 38.5344 11.844C38.0064 11.388 37.1304 11.16 35.9064 11.16C34.5624 11.16 32.8824 11.496 30.8664 12.168L29.7144 8.748C32.0904 7.812 34.4424 7.344 36.7704 7.344C39.3624 7.344 41.2704 7.908 42.4944 9.036C43.7184 10.14 44.3304 11.796 44.3304 14.004V21.708ZM35.9424 23.904C37.3824 23.904 38.5104 23.196 39.3264 21.78V18.144H37.6344C34.8744 18.144 33.4944 19.176 33.4944 21.24C33.4944 22.08 33.6984 22.74 34.1064 23.22C34.5384 23.676 35.1504 23.904 35.9424 23.904Z" fill="white"/>
<path d="M58.7386 27.036C57.9706 29.46 56.7586 31.332 55.1026 32.652C53.4706 33.972 51.2506 34.728 48.4426 34.92L47.9026 31.248C49.7266 31.008 51.0586 30.576 51.8986 29.952C52.7626 29.328 53.4706 28.344 54.0226 27H52.2586L46.3186 7.92H51.7546L55.5706 23.688L59.6026 7.92H64.8946L58.7386 27.036Z" fill="white"/>
<path d="M81.2093 21.708C81.2093 22.452 81.3173 23.004 81.5333 23.364C81.7493 23.7 82.1093 23.952 82.6133 24.12L81.5333 27.504C80.4053 27.408 79.4813 27.144 78.7613 26.712C78.0653 26.28 77.5253 25.608 77.1413 24.696C75.8933 26.616 73.9853 27.576 71.4173 27.576C69.5213 27.576 68.0093 27.036 66.8813 25.956C65.7773 24.852 65.2253 23.424 65.2253 21.672C65.2253 19.584 65.9813 17.988 67.4933 16.884C69.0053 15.78 71.1773 15.228 74.0093 15.228H76.2053V14.292C76.2053 13.116 75.9413 12.3 75.4133 11.844C74.8853 11.388 74.0093 11.16 72.7853 11.16C71.4413 11.16 69.7613 11.496 67.7453 12.168L66.5933 8.748C68.9693 7.812 71.3213 7.344 73.6493 7.344C76.2413 7.344 78.1493 7.908 79.3733 9.036C80.5973 10.14 81.2093 11.796 81.2093 14.004V21.708ZM72.8213 23.904C74.2613 23.904 75.3893 23.196 76.2053 21.78V18.144H74.5133C71.7533 18.144 70.3733 19.176 70.3733 21.24C70.3733 22.08 70.5773 22.74 70.9853 23.22C71.4173 23.676 72.0293 23.904 72.8213 23.904Z" fill="white"/>
<path d="M96.1808 7.38C96.7568 7.38 97.3928 7.476 98.0888 7.668L97.2248 12.6C96.5528 12.432 95.9888 12.348 95.5328 12.348C94.4048 12.348 93.5288 12.744 92.9048 13.536C92.2808 14.328 91.7888 15.528 91.4288 17.136V27H86.3168V7.92H90.7448L91.2128 11.628C91.6688 10.284 92.3288 9.24 93.1928 8.496C94.0808 7.752 95.0768 7.38 96.1808 7.38Z" fill="white"/>
<path d="M113.94 21.708C113.94 22.452 114.048 23.004 114.264 23.364C114.48 23.7 114.84 23.952 115.344 24.12L114.264 27.504C113.136 27.408 112.212 27.144 111.492 26.712C110.796 26.28 110.256 25.608 109.872 24.696C108.624 26.616 106.716 27.576 104.148 27.576C102.252 27.576 100.74 27.036 99.6118 25.956C98.5078 24.852 97.9558 23.424 97.9558 21.672C97.9558 19.584 98.7118 17.988 100.224 16.884C101.736 15.78 103.908 15.228 106.74 15.228H108.936V14.292C108.936 13.116 108.672 12.3 108.144 11.844C107.616 11.388 106.74 11.16 105.516 11.16C104.172 11.16 102.492 11.496 100.476 12.168L99.3238 8.748C101.7 7.812 104.052 7.344 106.38 7.344C108.972 7.344 110.88 7.908 112.104 9.036C113.328 10.14 113.94 11.796 113.94 14.004V21.708ZM105.552 23.904C106.992 23.904 108.12 23.196 108.936 21.78V18.144H107.244C104.484 18.144 103.104 19.176 103.104 21.24C103.104 22.08 103.308 22.74 103.716 23.22C104.148 23.676 104.76 23.904 105.552 23.904Z" fill="white"/>
<path d="M138.799 1.764C140.359 1.764 141.703 1.992 142.831 2.448C143.983 2.88 145.123 3.564 146.251 4.5L144.235 6.588C143.347 5.868 142.495 5.352 141.679 5.04C140.863 4.728 139.903 4.572 138.799 4.572C137.527 4.572 136.351 4.92 135.271 5.616C134.215 6.288 133.351 7.38 132.679 8.892C132.007 10.38 131.671 12.276 131.671 14.58C131.671 18.06 132.235 20.604 133.363 22.212C134.515 23.82 136.207 24.624 138.439 24.624C140.263 24.624 141.835 24.252 143.155 23.508V16.02H138.763L138.367 13.248H146.539V25.236C143.971 26.7 141.271 27.432 138.439 27.432C135.175 27.432 132.619 26.34 130.771 24.156C128.947 21.972 128.035 18.78 128.035 14.58C128.035 11.892 128.515 9.588 129.475 7.668C130.459 5.724 131.767 4.26 133.399 3.276C135.055 2.268 136.855 1.764 138.799 1.764Z" fill="white"/>
<path d="M166.298 27H163.454L163.202 24.048C162.482 25.224 161.654 26.088 160.718 26.64C159.782 27.168 158.642 27.432 157.298 27.432C155.642 27.432 154.346 26.928 153.41 25.92C152.474 24.912 152.006 23.484 152.006 21.636V8.028H155.318V21.276C155.318 22.572 155.546 23.496 156.002 24.048C156.458 24.576 157.202 24.84 158.234 24.84C160.082 24.84 161.666 23.748 162.986 21.564V8.028H166.298V27Z" fill="white"/>
<path d="M185.919 22.572C185.919 23.34 186.051 23.916 186.315 24.3C186.579 24.66 186.975 24.936 187.503 25.128L186.747 27.432C185.763 27.312 184.971 27.036 184.371 26.604C183.771 26.172 183.327 25.5 183.039 24.588C181.767 26.484 179.883 27.432 177.387 27.432C175.515 27.432 174.039 26.904 172.959 25.848C171.879 24.792 171.339 23.412 171.339 21.708C171.339 19.692 172.059 18.144 173.499 17.064C174.963 15.984 177.027 15.444 179.691 15.444H182.607V14.04C182.607 12.696 182.283 11.736 181.635 11.16C180.987 10.584 179.991 10.296 178.647 10.296C177.255 10.296 175.551 10.632 173.535 11.304L172.707 8.892C175.059 8.028 177.243 7.596 179.259 7.596C181.491 7.596 183.159 8.148 184.263 9.252C185.367 10.332 185.919 11.88 185.919 13.896V22.572ZM178.143 24.948C180.039 24.948 181.527 23.964 182.607 21.996V17.64H180.123C176.619 17.64 174.867 18.936 174.867 21.528C174.867 22.656 175.143 23.508 175.695 24.084C176.247 24.66 177.063 24.948 178.143 24.948Z" fill="white"/>
<path d="M196.149 27.432C194.925 27.432 193.953 27.072 193.233 26.352C192.537 25.608 192.189 24.576 192.189 23.256V0.396001L195.501 0V23.184C195.501 23.712 195.585 24.096 195.753 24.336C195.945 24.576 196.257 24.696 196.689 24.696C197.145 24.696 197.553 24.624 197.913 24.48L198.777 26.784C197.985 27.216 197.109 27.432 196.149 27.432Z" fill="white"/>
<path d="M211.592 7.596C213.752 7.596 215.468 8.472 216.74 10.224C218.012 11.952 218.648 14.376 218.648 17.496C218.648 19.464 218.348 21.204 217.748 22.716C217.148 24.204 216.284 25.368 215.156 26.208C214.028 27.024 212.708 27.432 211.196 27.432C209.204 27.432 207.524 26.592 206.156 24.912L205.832 27H202.916V0.396001L206.228 0V10.404C207.596 8.532 209.384 7.596 211.592 7.596ZM210.404 24.804C211.868 24.804 213.008 24.216 213.824 23.04C214.664 21.84 215.084 19.992 215.084 17.496C215.084 14.928 214.7 13.08 213.932 11.952C213.164 10.8 212.072 10.224 210.656 10.224C208.976 10.224 207.5 11.208 206.228 13.176V22.248C206.732 23.04 207.344 23.664 208.064 24.12C208.808 24.576 209.588 24.804 210.404 24.804Z" fill="white"/>
<path d="M238.619 16.956C238.619 17.508 238.595 18.072 238.547 18.648H226.451C226.595 20.736 227.123 22.272 228.035 23.256C228.947 24.24 230.123 24.732 231.563 24.732C232.475 24.732 233.315 24.6 234.083 24.336C234.851 24.072 235.655 23.652 236.495 23.076L237.935 25.056C235.919 26.64 233.711 27.432 231.311 27.432C228.671 27.432 226.607 26.568 225.119 24.84C223.655 23.112 222.923 20.736 222.923 17.712C222.923 15.744 223.235 14.004 223.859 12.492C224.507 10.956 225.419 9.756 226.595 8.892C227.795 8.028 229.199 7.596 230.807 7.596C233.327 7.596 235.259 8.424 236.603 10.08C237.947 11.736 238.619 14.028 238.619 16.956ZM235.343 15.984C235.343 14.112 234.971 12.684 234.227 11.7C233.483 10.716 232.367 10.224 230.879 10.224C228.167 10.224 226.691 12.216 226.451 16.2H235.343V15.984Z" fill="white"/>
<path d="M252.152 7.596C252.824 7.596 253.448 7.668 254.024 7.812L253.412 11.052C252.836 10.908 252.284 10.836 251.756 10.836C250.58 10.836 249.632 11.268 248.912 12.132C248.192 12.996 247.628 14.34 247.22 16.164V27H243.908V8.028H246.752L247.076 11.88C247.58 10.464 248.264 9.396 249.128 8.676C249.992 7.956 251 7.596 252.152 7.596Z" fill="white"/>
<path d="M267.371 26.136C266.123 27 264.707 27.432 263.123 27.432C261.515 27.432 260.255 26.976 259.343 26.064C258.455 25.128 258.011 23.784 258.011 22.032V10.584H254.699V8.028H258.011V3.744L261.323 3.348V8.028H265.823L265.463 10.584H261.323V21.888C261.323 22.872 261.491 23.592 261.827 24.048C262.187 24.48 262.775 24.696 263.591 24.696C264.335 24.696 265.175 24.444 266.111 23.94L267.371 26.136Z" fill="white"/>
<path d="M277.403 7.596C280.067 7.596 282.131 8.484 283.595 10.26C285.083 12.036 285.827 14.448 285.827 17.496C285.827 19.464 285.491 21.204 284.819 22.716C284.147 24.204 283.175 25.368 281.903 26.208C280.631 27.024 279.119 27.432 277.367 27.432C274.703 27.432 272.627 26.544 271.139 24.768C269.651 22.992 268.907 20.58 268.907 17.532C268.907 15.564 269.243 13.836 269.915 12.348C270.587 10.836 271.559 9.672 272.831 8.856C274.103 8.016 275.627 7.596 277.403 7.596ZM277.403 10.26C274.115 10.26 272.471 12.684 272.471 17.532C272.471 22.356 274.103 24.768 277.367 24.768C280.631 24.768 282.263 22.344 282.263 17.496C282.263 12.672 280.643 10.26 277.403 10.26Z" fill="white"/>
</svg>
